<svg class="main-svg" xmlns="http://www.w3.org/2000/svg" xmlns:xlink="http://www.w3.org/1999/xlink" width="700" height="500" style="" viewBox="0 0 700 500"><rect x="0" y="0" width="700" height="500" style="fill: rgb(255, 255, 255); fill-opacity: 1;"/><defs id="defs-7b06f4"><g class="clips"><clipPath id="clip7b06f4xyplot" class="plotclip"><rect width="383" height="320"/></clipPath><clipPath class="axesclip" id="clip7b06f4x"><rect x="80" y="0" width="383" height="500"/></clipPath><clipPath class="axesclip" id="clip7b06f4y"><rect x="0" y="100" width="700" height="320"/></clipPath><clipPath class="axesclip" id="clip7b06f4xy"><rect x="80" y="100" width="383" height="320"/></clipPath></g><g class="gradients"/><g class="patterns"/></defs><g class="bglayer"><rect class="bg" x="80" y="100" width="383" height="320" style="fill: rgb(229, 236, 246); fill-opacity: 1; stroke-width: 0;"/></g><g class="layer-below"><g class="imagelayer"/><g class="shapelayer"/></g><g class="cartesianlayer"><g class="subplot xy"><g class="layer-subplot"><g class="shapelayer"/><g class="imagelayer"/></g><g class="gridlayer"><g class="x"><path class="xgrid crisp" transform="translate(156.6,0)" d="M0,100v320" style="stroke: rgb(255, 255, 255); stroke-opacity: 1; stroke-width: 1px;"/><path class="xgrid crisp" transform="translate(233.2,0)" d="M0,100v320" style="stroke: rgb(255, 255, 255); stroke-opacity: 1; stroke-width: 1px;"/><path class="xgrid crisp" transform="translate(309.8,0)" d="M0,100v320" style="stroke: rgb(255, 255, 255); stroke-opacity: 1; stroke-width: 1px;"/><path class="xgrid crisp" transform="translate(386.4,0)" d="M0,100v320" style="stroke: rgb(255, 255, 255); stroke-opacity: 1; stroke-width: 1px;"/></g><g class="y"><path class="ygrid crisp" transform="translate(0,360.22)" d="M80,0h383" style="stroke: rgb(255, 255, 255); stroke-opacity: 1; stroke-width: 1px;"/><path class="ygrid crisp" transform="translate(0,316.44)" d="M80,0h383" style="stroke: rgb(255, 255, 255); stroke-opacity: 1; stroke-width: 1px;"/><path class="ygrid crisp" transform="translate(0,272.65)" d="M80,0h383" style="stroke: rgb(255, 255, 255); stroke-opacity: 1; stroke-width: 1px;"/><path class="ygrid crisp" transform="translate(0,228.87)" d="M80,0h383" style="stroke: rgb(255, 255, 255); stroke-opacity: 1; stroke-width: 1px;"/><path class="ygrid crisp" transform="translate(0,185.09)" d="M80,0h383" style="stroke: rgb(255, 255, 255); stroke-opacity: 1; stroke-width: 1px;"/><path class="ygrid crisp" transform="translate(0,141.31)" d="M80,0h383" style="stroke: rgb(255, 255, 255); stroke-opacity: 1; stroke-width: 1px;"/></g></g><g class="zerolinelayer"><path class="xzl zl crisp" transform="translate(80,0)" d="M0,100v320" style="stroke: rgb(255, 255, 255); stroke-opacity: 1; stroke-width: 2px;"/><path class="yzl zl crisp" transform="translate(0,404)" d="M80,0h383" style="stroke: rgb(255, 255, 255); stroke-opacity: 1; stroke-width: 2px;"/></g><path class="xlines-below"/><path class="ylines-below"/><g class="overlines-below"/><g class="xaxislayer-below"/><g class="yaxislayer-below"/><g class="overaxes-below"/><g class="plot" transform="translate(80,100)" clip-path="url(#clip7b06f4xyplot)"><g class="scatterlayer mlayer"><g class="trace scatter trace9e494e" style="stroke-miterlimit: 2; opacity: 1;"><g class="fills"/><g class="errorbars"/><g class="lines"><path class="js-line" d="M0,304L1.15,303.33L1.53,302.81L3.06,299.25L3.45,298L5.75,287.55L6.13,285.33L9.57,259.87L9.96,256.48L14.94,204.8L15.32,200.38L27.96,59.36L28.34,56.12L32.56,28.15L32.94,26.37L35.62,17.81L36,17.16L37.53,16L37.92,16.07L39.45,17.81L39.83,18.61L41.75,24.67L42.13,26.3L45.19,43.89L45.58,46.62L49.79,83.29L50.17,87.13L57.07,163.47L57.45,167.84L64.73,242.62L65.11,245.85L69.32,274.42L69.71,276.32L72.39,286.06L72.77,286.93L74.69,289.25L75.07,289.31L76.22,288.69L76.6,288.21L78.52,283.88L78.9,282.63L81.58,270.51L81.96,268.32L85.41,244.11L85.79,240.98L91.15,190.75L91.54,186.86L101.88,88.06L102.26,85.13L106.47,59.07L106.86,57.31L109.92,47.29L110.3,46.55L112.22,44.65L112.6,44.62L114.13,45.66L114.52,46.21L116.43,50.62L116.82,51.83L119.5,63.11L119.88,65.1L124.09,92.18L124.48,95.04L132.9,165.34L133.28,168.55L140.18,219.06L140.56,221.29L144.39,239.08L144.77,240.38L147.84,247.4L148.22,247.85L150.14,248.68L150.52,248.57L152.05,247.18L152.43,246.61L154.73,241.38L155.12,240.22L158.56,226.49L158.95,224.64L164.31,193.88L164.69,191.44L175.8,123.76L176.18,121.9L180.39,105.33L180.78,104.2L183.84,97.6L184.22,97.09L186.52,95.46L186.9,95.43L188.82,96.26L189.2,96.62L191.5,100.04L191.88,100.81L194.95,108.78L195.33,109.98L200.69,130.01L201.08,131.59L211.42,172.3L211.8,173.5L216.01,184.32L216.4,185.06L219.46,189.45L219.84,189.81L222.52,191.11L222.91,191.13L225.2,190.47L225.59,190.23L228.65,187.19L229.03,186.68L233.25,179.76L233.63,179.05L244.74,159.08L245.12,158.58L248.95,154.81L249.33,154.56L252.78,153.39L253.16,153.37L256.61,154.16L256.99,154.33L261.59,157.5L261.97,157.83L271.16,164.57L271.55,164.71L274.99,165.05L275.38,164.97L278.44,163.51L278.82,163.22L282.27,159.49L282.65,158.96L286.87,151.86L287.25,151.12L299.89,126.96L300.27,126.49L303.34,123.9L303.72,123.73L306.02,123.59L306.4,123.71L308.7,125.36L309.08,125.79L312.15,130.85L312.53,131.68L316.36,142.26L316.74,143.52L322.49,165.91L322.87,167.56L333.21,209.6L333.59,210.79L337.42,220.06L337.81,220.68L340.1,223.1L340.49,223.27L342.4,223.12L342.79,222.88L344.7,220.62L345.08,219.96L347.76,213.33L348.15,212.11L351.59,198.23L351.98,196.39L356.96,168.21L357.34,165.79L369.98,87.75L370.36,85.99L373.81,73.24L374.19,72.22L376.87,67.45L377.26,67.14L378.79,66.8L379.17,66.96L380.7,68.54L381.09,69.18L383,73.8" style="vector-effect: non-scaling-stroke; fill: none; stroke: rgb(255, 0, 0); stroke-opacity: 1; stroke-width: 2px; opacity: 1;"/></g><g class="points"/><g class="text"/></g><g class="trace scatter trace6b858d" style="stroke-miterlimit: 2; opacity: 1;"><g class="fills"/><g class="errorbars"/><g class="lines"><path class="js-line" d="M0,304L1.15,303.33L1.53,302.81L3.45,298.03L3.83,296.64L6.51,283.16L6.89,280.72L10.34,253.68L10.72,250.17L15.7,198.11L16.09,193.76L26.81,77.73L27.19,74.42L31.41,45.08L31.79,43.12L34.47,33.05L34.85,32.15L36.77,29.71L37.15,29.64L38.3,30.25L38.68,30.73L40.6,35.16L40.98,36.45L43.66,48.96L44.05,51.23L47.88,79.61L48.26,82.95L54.39,144.44L54.77,148.57L63.96,241.26L64.34,244.43L68.94,275.06L69.32,276.93L72.39,287.65L72.77,288.45L74.69,290.61L75.07,290.67L76.6,289.72L76.98,289.18L78.9,284.74L79.28,283.52L81.96,271.98L82.35,269.93L86.18,244.88L86.56,241.98L93.84,179.6L94.22,176.19L101.5,117.54L101.88,115L106.09,92.39L106.47,90.87L109.54,82.22L109.92,81.59L111.84,79.97L112.22,79.95L113.75,80.88L114.13,81.36L116.05,85.22L116.43,86.27L119.11,96.07L119.5,97.79L123.71,121.25L124.09,123.72L130.6,170.37L130.99,173.21L138.65,224.96L139.03,227.09L143.24,246.37L143.63,247.71L146.69,255.61L147.07,256.24L149.37,258.4L149.75,258.49L151.29,258.06L151.67,257.77L153.97,254.49L154.35,253.7L157.41,245.15L157.8,243.83L162.39,224.56L162.78,222.73L176.56,158.02L176.95,156.71L180.78,146.23L181.16,145.47L184.22,141.33L184.61,141.06L186.9,140.57L187.29,140.68L189.59,142.38L189.97,142.84L193.03,148.06L193.42,148.89L197.63,160.15L198.01,161.33L212.95,207.66L213.33,208.51L217.16,215.36L217.54,215.86L220.99,218.96L221.37,219.15L224.44,219.53L224.82,219.45L227.89,217.91L228.27,217.61L232.48,213.31L232.86,212.84L245.5,198.11L245.89,197.84L249.72,195.97L250.1,195.88L253.93,195.89L254.31,195.98L258.52,197.82L258.91,198.06L272.7,206.64L273.08,206.73L276.91,206.78L277.29,206.69L280.74,205.15L281.12,204.9L285.33,201.13L285.72,200.71L294.53,189.63L294.91,189.16L299.89,184.27L300.27,184.01L303.72,182.68L304.1,182.65L306.78,183.24L307.17,183.44L309.85,185.64L310.23,186.08L313.68,191.29L314.06,192.01L318.66,202.51L319.04,203.52L334.74,245.88L335.13,246.57L338.57,251.12L338.96,251.43L341.64,252.43L342.02,252.4L344.32,251.25L344.7,250.91L347.38,247.22L347.76,246.52L351.21,238.39L351.59,237.3L356.19,221.86L356.57,220.41L370.36,169.63L370.74,168.64L374.57,161.28L374.96,160.81L377.26,159.2L377.64,159.13L379.55,159.63L379.94,159.91L382.23,162.8L382.62,163.48L383,164.22" style="vector-effect: non-scaling-stroke; fill: none; stroke: rgb(0, 0, 255); stroke-opacity: 1; stroke-width: 2px; opacity: 1;"/></g><g class="points"/><g class="text"/></g><g class="trace scatter tracea15280" style="stroke-miterlimit: 2; opacity: 1;"><g class="fills"/><g class="errorbars"/><g class="lines"><path class="js-line" d="M0,304L1.15,303.33L1.53,302.81L3.06,299.28L3.45,298.03L6.13,285.51L6.51,283.2L10.34,253.82L10.72,250.32L16.09,194.22L16.47,189.87L26.81,79.32L27.19,76.06L31.41,47.21L31.79,45.29L34.47,35.49L34.85,34.63L36.77,32.35L37.15,32.31L38.3,33L38.68,33.5L40.6,38.03L40.98,39.32L43.66,51.88L44.05,54.15L47.88,82.44L48.26,85.76L54.39,146.73L54.77,150.82L63.96,242.33L64.34,245.45L68.94,275.59L69.32,277.43L72.39,287.96L72.77,288.75L74.69,290.87L75.07,290.93L76.6,290L76.98,289.47L78.9,285.13L79.28,283.93L81.96,272.64L82.35,270.64L86.56,243.34L86.94,240.45L94.98,172.67L95.37,169.4L101.88,119.94L102.26,117.56L106.09,98.16L106.47,96.71L109.54,88.47L109.92,87.89L111.84,86.43L112.22,86.43L113.75,87.43L114.13,87.92L116.05,91.78L116.43,92.82L119.11,102.47L119.5,104.16L123.71,127.1L124.09,129.52L130.6,174.9L130.99,177.66L138.65,227.81L139.03,229.88L143.24,248.52L143.63,249.81L146.69,257.45L147.07,258.06L149.37,260.16L149.75,260.25L151.67,259.57L152.05,259.22L154.35,255.68L154.73,254.86L157.8,246.24L158.18,244.93L163.16,224.32L163.54,222.54L175.8,167.19L176.18,165.86L180.39,154.26L180.78,153.5L183.84,149.26L184.22,148.97L186.52,148.3L186.9,148.36L189.2,149.8L189.59,150.2L192.65,154.97L193.03,155.74L196.86,165.21L197.25,166.3L206.82,196.57L207.2,197.74L213.33,213.72L213.71,214.51L217.93,221.22L218.31,221.64L221.37,223.93L221.76,224.09L224.82,224.28L225.2,224.19L228.27,222.62L228.65,222.34L233.63,217.34L234.01,216.89L244.74,205.23L245.12,204.95L249.33,202.88L249.72,202.79L253.55,202.75L253.93,202.83L258.14,204.54L258.52,204.76L265.42,209.51L265.8,209.78L271.93,213.11L272.31,213.23L276.53,213.62L276.91,213.56L280.74,212.14L281.12,211.91L285.33,208.51L285.72,208.13L300.27,193.08L300.66,192.87L304.1,191.93L304.49,191.95L307.55,192.98L307.93,193.22L311,196.19L311.38,196.68L315.21,203.03L315.59,203.79L320.57,215.49L320.95,216.49L333.98,249.41L334.36,250.1L338.19,255.27L338.57,255.6L341.25,256.8L341.64,256.82L343.93,256.04L344.32,255.77L347,252.71L347.38,252.11L350.83,245.05L351.21,244.1L356.19,229.1L356.57,227.79L370.36,181.99L370.74,181.11L374.57,174.58L374.96,174.17L377.26,172.8L377.64,172.75L379.55,173.29L379.94,173.55L382.23,176.25L382.62,176.89L383,177.57" style="vector-effect: non-scaling-stroke; fill: none; stroke: rgb(0, 128, 0); stroke-opacity: 1; stroke-width: 2px; opacity: 1;"/></g><g class="points"/><g class="text"/></g></g></g><g class="overplot"/><path class="xlines-above crisp" d="M0,0" style="fill: none;"/><path class="ylines-above crisp" d="M0,0" style="fill: none;"/><g class="overlines-above"/><g class="xaxislayer-above"><g class="xtick"><text text-anchor="middle" x="0" y="432" transform="translate(80,0)" style="font-family: 'Open Sans', verdana, arial, sans-serif; font-size: 11px; fill: rgb(42, 63, 95); fill-opacity: 1; white-space: pre; opacity: 1;">0</text></g><g class="xtick"><text text-anchor="middle" x="0" y="432" style="font-family: 'Open Sans', verdana, arial, sans-serif; font-size: 11px; fill: rgb(42, 63, 95); fill-opacity: 1; white-space: pre; opacity: 1;" transform="translate(156.6,0)">200</text></g><g class="xtick"><text text-anchor="middle" x="0" y="432" style="font-family: 'Open Sans', verdana, arial, sans-serif; font-size: 11px; fill: rgb(42, 63, 95); fill-opacity: 1; white-space: pre; opacity: 1;" transform="translate(233.2,0)">400</text></g><g class="xtick"><text text-anchor="middle" x="0" y="432" style="font-family: 'Open Sans', verdana, arial, sans-serif; font-size: 11px; fill: rgb(42, 63, 95); fill-opacity: 1; white-space: pre; opacity: 1;" transform="translate(309.8,0)">600</text></g><g class="xtick"><text text-anchor="middle" x="0" y="432" style="font-family: 'Open Sans', verdana, arial, sans-serif; font-size: 11px; fill: rgb(42, 63, 95); fill-opacity: 1; white-space: pre; opacity: 1;" transform="translate(386.4,0)">800</text></g><g class="xtick"><text text-anchor="middle" x="0" y="432" style="font-family: 'Open Sans', verdana, arial, sans-serif; font-size: 11px; fill: rgb(42, 63, 95); fill-opacity: 1; white-space: pre; opacity: 1;" transform="translate(463,0)">1000</text></g></g><g class="yaxislayer-above"><g class="ytick"><text text-anchor="end" x="79" y="3.8499999999999996" transform="translate(0,404)" style="font-family: 'Open Sans', verdana, arial, sans-serif; font-size: 11px; fill: rgb(42, 63, 95); fill-opacity: 1; white-space: pre; opacity: 1;">0</text></g><g class="ytick"><text text-anchor="end" x="79" y="3.8499999999999996" style="font-family: 'Open Sans', verdana, arial, sans-serif; font-size: 11px; fill: rgb(42, 63, 95); fill-opacity: 1; white-space: pre; opacity: 1;" transform="translate(0,360.22)">0.05</text></g><g class="ytick"><text text-anchor="end" x="79" y="3.8499999999999996" style="font-family: 'Open Sans', verdana, arial, sans-serif; font-size: 11px; fill: rgb(42, 63, 95); fill-opacity: 1; white-space: pre; opacity: 1;" transform="translate(0,316.44)">0.1</text></g><g class="ytick"><text text-anchor="end" x="79" y="3.8499999999999996" style="font-family: 'Open Sans', verdana, arial, sans-serif; font-size: 11px; fill: rgb(42, 63, 95); fill-opacity: 1; white-space: pre; opacity: 1;" transform="translate(0,272.65)">0.15</text></g><g class="ytick"><text text-anchor="end" x="79" y="3.8499999999999996" style="font-family: 'Open Sans', verdana, arial, sans-serif; font-size: 11px; fill: rgb(42, 63, 95); fill-opacity: 1; white-space: pre; opacity: 1;" transform="translate(0,228.87)">0.2</text></g><g class="ytick"><text text-anchor="end" x="79" y="3.8499999999999996" style="font-family: 'Open Sans', verdana, arial, sans-serif; font-size: 11px; fill: rgb(42, 63, 95); fill-opacity: 1; white-space: pre; opacity: 1;" transform="translate(0,185.09)">0.25</text></g><g class="ytick"><text text-anchor="end" x="79" y="3.8499999999999996" style="font-family: 'Open Sans', verdana, arial, sans-serif; font-size: 11px; fill: rgb(42, 63, 95); fill-opacity: 1; white-space: pre; opacity: 1;" transform="translate(0,141.31)">0.3</text></g></g><g class="overaxes-above"/></g></g><g class="polarlayer"/><g class="ternarylayer"/><g class="geolayer"/><g class="funnelarealayer"/><g class="pielayer"/><g class="iciclelayer"/><g class="treemaplayer"/><g class="sunburstlayer"/><g class="glimages"/><defs id="topdefs-7b06f4"><g class="clips"/><clipPath id="legend7b06f4"><rect width="217" height="67" x="0" y="0"/></clipPath></defs><g class="layer-above"><g class="imagelayer"/><g class="shapelayer"/></g><g class="infolayer"><g class="legend" pointer-events="all" transform="translate(470.66,100)"><rect class="bg" shape-rendering="crispEdges" width="217" height="67" x="0" y="0" style="stroke: rgb(68, 68, 68); stroke-opacity: 1; fill: rgb(255, 255, 255); fill-opacity: 1; stroke-width: 0px;"/><g class="scrollbox" transform="" clip-path="url(#legend7b06f4)"><g class="groups"><g class="traces" transform="translate(0,14.5)" style="opacity: 1;"><text class="legendtext" text-anchor="start" x="40" y="4.29" style="font-family: 'Open Sans', verdana, arial, sans-serif; font-size: 11px; fill: rgb(42, 63, 95); fill-opacity: 1; white-space: pre;">Rho_66</text><g class="layers" style="opacity: 1;"><g class="legendfill"/><g class="legendlines"><path class="js-line" d="M5,0h30" style="fill: none; stroke: rgb(255, 0, 0); stroke-opacity: 1; stroke-width: 2px;"/></g><g class="legendsymbols"><g class="legendpoints"/></g></g><rect class="legendtoggle" x="0" y="-9.5" width="211.234375" height="19" style="fill: rgb(0, 0, 0); fill-opacity: 0;"/></g><g class="traces" transform="translate(0,33.5)" style="opacity: 1;"><text class="legendtext" text-anchor="start" x="40" y="4.29" style="font-family: 'Open Sans', verdana, arial, sans-serif; font-size: 11px; fill: rgb(42, 63, 95); fill-opacity: 1; white-space: pre;">Rho_66 with 1us tau_f</text><g class="layers" style="opacity: 1;"><g class="legendfill"/><g class="legendlines"><path class="js-line" d="M5,0h30" style="fill: none; stroke: rgb(0, 0, 255); stroke-opacity: 1; stroke-width: 2px;"/></g><g class="legendsymbols"><g class="legendpoints"/></g></g><rect class="legendtoggle" x="0" y="-9.5" width="211.234375" height="19" style="fill: rgb(0, 0, 0); fill-opacity: 0;"/></g><g class="traces" transform="translate(0,52.5)" style="opacity: 1;"><text class="legendtext" text-anchor="start" x="40" y="4.29" style="font-family: 'Open Sans', verdana, arial, sans-serif; font-size: 11px; fill: rgb(42, 63, 95); fill-opacity: 1; white-space: pre;">Rho_66 with 1us tau_f &amp; 5us tau_b</text><g class="layers" style="opacity: 1;"><g class="legendfill"/><g class="legendlines"><path class="js-line" d="M5,0h30" style="fill: none; stroke: rgb(0, 128, 0); stroke-opacity: 1; stroke-width: 2px;"/></g><g class="legendsymbols"><g class="legendpoints"/></g></g><rect class="legendtoggle" x="0" y="-9.5" width="211.234375" height="19" style="fill: rgb(0, 0, 0); fill-opacity: 0;"/></g></g></g><rect class="scrollbar" rx="20" ry="3" width="0" height="0" x="0" y="0" style="fill: rgb(128, 139, 164); fill-opacity: 1;"/></g><g class="g-gtitle"><text class="gtitle" x="35" y="50" text-anchor="start" dy="0em" style="font-family: 'Open Sans', verdana, arial, sans-serif; font-size: 15px; fill: rgb(42, 63, 95); opacity: 1; font-weight: normal; white-space: pre;">D to P Excitation: Effect of other decays</text></g><g class="g-xtitle"><text class="xtitle" x="271.5" y="458.1" text-anchor="middle" style="font-family: 'Open Sans', verdana, arial, sans-serif; font-size: 13px; fill: rgb(42, 63, 95); opacity: 1; font-weight: normal; white-space: pre;">Time (ns)</text></g><g class="g-ytitle"><text class="ytitle" transform="rotate(-90,33.478125,260)" x="33.478125" y="260" text-anchor="middle" style="font-family: 'Open Sans', verdana, arial, sans-serif; font-size: 13px; fill: rgb(42, 63, 95); opacity: 1; font-weight: normal; white-space: pre;">Population</text></g></g></svg>