<?xml version="1.0" encoding="UTF-8" standalone="no"?>
<!-- Created with Inkscape (http://www.inkscape.org/) -->

<svg
   xmlns:dc="http://purl.org/dc/elements/1.1/"
   xmlns:cc="http://creativecommons.org/ns#"
   xmlns:rdf="http://www.w3.org/1999/02/22-rdf-syntax-ns#"
   xmlns:svg="http://www.w3.org/2000/svg"
   xmlns="http://www.w3.org/2000/svg"
   xmlns:sodipodi="http://sodipodi.sourceforge.net/DTD/sodipodi-0.dtd"
   xmlns:inkscape="http://www.inkscape.org/namespaces/inkscape"
   width="210mm"
   height="297mm"
   viewBox="0 0 210 297"
   version="1.1"
   id="svg8"
   inkscape:version="0.92.5 (2060ec1f9f, 2020-04-08)"
   sodipodi:docname="LASEDLogo.svg">
  <defs
     id="defs2">
    <marker
       inkscape:stockid="Arrow2Lstart"
       orient="auto"
       refY="0.0"
       refX="0.0"
       id="Arrow2Lstart"
       style="overflow:visible"
       inkscape:isstock="true">
      <path
         id="path1249"
         style="fill-rule:evenodd;stroke-width:0.625;stroke-linejoin:round;stroke:#000000;stroke-opacity:1;fill:#000000;fill-opacity:1"
         d="M 8.7185878,4.0337352 L -2.2072895,0.016013256 L 8.7185884,-4.0017078 C 6.9730900,-1.6296469 6.9831476,1.6157441 8.7185878,4.0337352 z "
         transform="scale(1.1) translate(1,0)" />
    </marker>
    <inkscape:path-effect
       effect="bspline"
       id="path-effect1724"
       is_visible="true"
       weight="33.333333"
       steps="2"
       helper_size="0"
       apply_no_weight="true"
       apply_with_weight="true"
       only_selected="false" />
    <marker
       inkscape:stockid="Arrow1Lend"
       orient="auto"
       refY="0.0"
       refX="0.0"
       id="Arrow1Lend"
       style="overflow:visible;"
       inkscape:isstock="true">
      <path
         id="path1234"
         d="M 0.0,0.0 L 5.0,-5.0 L -12.5,0.0 L 5.0,5.0 L 0.0,0.0 z "
         style="fill-rule:evenodd;stroke:#000000;stroke-width:1pt;stroke-opacity:1;fill:#000000;fill-opacity:1"
         transform="scale(0.8) rotate(180) translate(12.5,0)" />
    </marker>
    <inkscape:path-effect
       effect="bspline"
       id="path-effect1229"
       is_visible="true"
       weight="33.333333"
       steps="2"
       helper_size="0"
       apply_no_weight="true"
       apply_with_weight="true"
       only_selected="false" />
    <inkscape:path-effect
       effect="bspline"
       id="path-effect973"
       is_visible="true"
       weight="33.333333"
       steps="2"
       helper_size="0"
       apply_no_weight="true"
       apply_with_weight="true"
       only_selected="false" />
    <marker
       style="overflow:visible"
       id="Arrow1Lstart"
       refX="0.0"
       refY="0.0"
       orient="auto"
       inkscape:stockid="Arrow1Lstart">
      <path
         transform="scale(0.8) translate(12.5,0)"
         style="fill-rule:evenodd;stroke:#000000;stroke-width:1.0pt;marker-start:none"
         d="M 0.0,0.0 L 5.0,-5.0 L -12.5,0.0 L 5.0,5.0 L 0.0,0.0 z "
         id="path7341" />
    </marker>
    <inkscape:perspective
       id="perspective6277"
       inkscape:persp3d-origin="372.04724 : 350.78739 : 1"
       inkscape:vp_z="744.09448 : 526.18109 : 1"
       inkscape:vp_y="0 : 1000 : 0"
       inkscape:vp_x="0 : 526.18109 : 1"
       sodipodi:type="inkscape:persp3d" />
    <inkscape:perspective
       sodipodi:type="inkscape:persp3d"
       inkscape:vp_x="0 : 0.5 : 1"
       inkscape:vp_y="0 : 1000 : 0"
       inkscape:vp_z="1 : 0.5 : 1"
       inkscape:persp3d-origin="0.5 : 0.33333333 : 1"
       id="perspective6900" />
    <inkscape:perspective
       sodipodi:type="inkscape:persp3d"
       inkscape:vp_x="0 : 0.5 : 1"
       inkscape:vp_y="0 : 1000 : 0"
       inkscape:vp_z="1 : 0.5 : 1"
       inkscape:persp3d-origin="0.5 : 0.33333333 : 1"
       id="perspective7116" />
    <inkscape:perspective
       sodipodi:type="inkscape:persp3d"
       inkscape:vp_x="0 : 0.5 : 1"
       inkscape:vp_y="0 : 1000 : 0"
       inkscape:vp_z="1 : 0.5 : 1"
       inkscape:persp3d-origin="0.5 : 0.33333333 : 1"
       id="perspective7116-3" />
    <inkscape:perspective
       sodipodi:type="inkscape:persp3d"
       inkscape:vp_x="0 : 0.5 : 1"
       inkscape:vp_y="0 : 1000 : 0"
       inkscape:vp_z="1 : 0.5 : 1"
       inkscape:persp3d-origin="0.5 : 0.33333333 : 1"
       id="perspective7116-6" />
    <inkscape:perspective
       sodipodi:type="inkscape:persp3d"
       inkscape:vp_x="0 : 0.5 : 1"
       inkscape:vp_y="0 : 1000 : 0"
       inkscape:vp_z="1 : 0.5 : 1"
       inkscape:persp3d-origin="0.5 : 0.33333333 : 1"
       id="perspective8732" />
    <inkscape:perspective
       sodipodi:type="inkscape:persp3d"
       inkscape:vp_x="0 : 0.5 : 1"
       inkscape:vp_y="0 : 1000 : 0"
       inkscape:vp_z="1 : 0.5 : 1"
       inkscape:persp3d-origin="0.5 : 0.33333333 : 1"
       id="perspective8732-7" />
    <inkscape:perspective
       sodipodi:type="inkscape:persp3d"
       inkscape:vp_x="0 : 0.5 : 1"
       inkscape:vp_y="0 : 1000 : 0"
       inkscape:vp_z="1 : 0.5 : 1"
       inkscape:persp3d-origin="0.5 : 0.33333333 : 1"
       id="perspective8732-2" />
    <inkscape:perspective
       sodipodi:type="inkscape:persp3d"
       inkscape:vp_x="0 : 0.5 : 1"
       inkscape:vp_y="0 : 1000 : 0"
       inkscape:vp_z="1 : 0.5 : 1"
       inkscape:persp3d-origin="0.5 : 0.33333333 : 1"
       id="perspective8732-4" />
  </defs>
  <sodipodi:namedview
     id="base"
     pagecolor="#ffffff"
     bordercolor="#666666"
     borderopacity="1.0"
     inkscape:pageopacity="0.0"
     inkscape:pageshadow="2"
     inkscape:zoom="0.7328125"
     inkscape:cx="297.92337"
     inkscape:cy="731.89239"
     inkscape:document-units="mm"
     inkscape:current-layer="layer1"
     showgrid="true"
     inkscape:snap-global="true"
     inkscape:window-width="1366"
     inkscape:window-height="711"
     inkscape:window-x="0"
     inkscape:window-y="0"
     inkscape:window-maximized="1">
    <inkscape:grid
       type="xygrid"
       id="grid965" />
  </sodipodi:namedview>
  <metadata
     id="metadata5">
    <rdf:RDF>
      <cc:Work
         rdf:about="">
        <dc:format>image/svg+xml</dc:format>
        <dc:type
           rdf:resource="http://purl.org/dc/dcmitype/StillImage" />
        <dc:title></dc:title>
      </cc:Work>
    </rdf:RDF>
  </metadata>
  <g
     inkscape:label="Layer 1"
     inkscape:groupmode="layer"
     id="layer1">
    <path
       style="fill:#ff5555;stroke:#000000;stroke-width:0.35;stroke-linecap:butt;stroke-linejoin:miter;stroke-opacity:1;stroke-miterlimit:4;stroke-dasharray:none"
       d="m 65.357372,89.439281 0.263808,10.200732 0.36105,1.399077 0.541578,1.12829 1.083157,1.39907 1.489339,1.44421 1.444207,0.94776 0.902629,0.36105 1.207267,0.3272 0.338487,0.0169 1.325737,-0.0169 0.02619,-5.2401 -0.542518,-0.10371 -1.013232,-0.20345 -0.793829,-0.71006 -0.39492,-0.502624 -0.414867,-0.53055 -0.0718,-0.945414 -0.140391,-9.421781 -5.647079,0.0141 z"
       id="path79"
       inkscape:connector-curvature="0" />
    <path
       style="fill:#ff5555;stroke:#000000;stroke-width:1.32283467;stroke-linecap:butt;stroke-linejoin:miter;stroke-opacity:1;stroke-miterlimit:4;stroke-dasharray:none"
       d="M 288.75195 336.22852 L 288.15039 402.92969 L 308.05078 403.04883 L 308.17188 392.19531 L 315.16797 392.07422 L 314.92578 403.29102 L 335.18945 402.92969 L 335.43164 368.67383 L 334.76758 361.25586 L 333.56055 357.33594 L 330.60547 352.69336 L 328.49609 350.03906 L 327.28906 348.65234 L 325.48047 346.66211 L 322.22266 343.52539 L 318.90625 341.35547 L 315.10742 339.12305 L 313.53906 338.21875 L 310.40234 336.95312 L 288.75195 336.22852 z M 309.04102 358.08398 L 313.0918 362.94531 L 314.1582 365.24805 L 314.66992 369.04492 L 314.49805 374.67383 L 308.99805 374.50195 L 309.04102 358.08398 z "
       transform="scale(0.26458333)"
       id="path81" />
    <path
       style="fill:#ff5555;stroke:#000000;stroke-width:0.35;stroke-linecap:butt;stroke-linejoin:miter;stroke-opacity:1;stroke-miterlimit:4;stroke-dasharray:none"
       d="m 90.696118,101.62996 0.03191,5.122 0.973338,0.0319 h 0.909516 l 1.675421,-0.86165 1.675421,-1.03716 0.957382,-0.734 0.638257,-0.71804 0.718036,-1.21268 0.749951,-1.37225 0.191477,-0.941427 0.143607,-1.579684 -0.03191,-1.356291 0.239348,-0.797819 0.398909,-0.670169 0.462739,-0.478692 0.82973,-0.606343 0.81377,-0.398909 1.06908,-0.07978 -0.016,-4.930523 -0.86165,-0.03191 -0.94142,0.159565 -0.90952,0.303171 -0.829731,0.366998 -0.957382,0.414866 -1.499902,1.053121 -0.702079,0.845688 -0.654214,0.861645 -0.574429,1.276511 -0.446778,1.180775 -0.223391,0.957381 -0.127651,0.941428 -0.09574,1.324379 -0.143608,0.973342 -0.52656,0.622297 -0.973339,0.8776 -0.973341,0.31913 z"
       id="path85"
       inkscape:connector-curvature="0" />
    <path
       style="fill:#ff5555;stroke:#000000;stroke-width:0.35;stroke-linecap:butt;stroke-linejoin:miter;stroke-opacity:1;stroke-miterlimit:4;stroke-dasharray:none"
       d="m 105.20149,89.214639 -0.0451,17.511021 8.8909,-0.18053 0.0903,-4.91933 -3.61052,0.0903 0.0451,-7.988273 3.56539,-0.04513 -0.0903,-4.829069 z"
       id="path87"
       inkscape:connector-curvature="0" />
    <path
       style="fill:#ff5555;stroke:#000000;stroke-width:1.32283467;stroke-linecap:butt;stroke-linejoin:miter;stroke-miterlimit:4;stroke-dasharray:none;stroke-opacity:1"
       d="M 449.97852 336.16602 L 450.66016 336.84766 L 451.17188 402.34961 L 478.46484 403.03125 L 487.8457 399.2793 L 496.375 392.79688 L 502.00391 384.26758 L 504.9043 379.15039 L 506.09766 373.17969 L 505.92773 367.38086 L 504.9043 360.38672 L 502.51562 355.09961 L 498.93359 350.32422 L 494.32812 345.03516 L 487.33398 339.74805 L 479.48828 336.67773 L 449.97852 336.16602 z M 471.84766 355.58789 L 474.80273 355.58789 L 479.44531 358.12109 L 483.125 363.36719 L 484.57227 367.4082 L 484.8125 372.47461 L 483.18555 377.17773 L 479.86719 381.39844 C 479.86719 381.39844 477.39543 383.26953 477.1543 383.26953 C 476.91305 383.26953 471.78711 383.57031 471.78711 383.57031 L 471.84766 355.58789 z "
       transform="scale(0.26458333)"
       id="path89" />
    <ellipse
       style="opacity:1;fill:#ff5555;fill-opacity:1;stroke:#000000;stroke-width:0.35;stroke-miterlimit:4;stroke-dasharray:none;stroke-dashoffset:0"
       id="path93"
       cx="114.35944"
       cy="98.03978"
       rx="2.3136764"
       ry="2.090287" />
    <g
       transform="matrix(0.26458333,0,0,0.26458333,-21.395189,-24.000584)"
       id="layer1-6"
       inkscape:label="Layer 1">
      <path
         sodipodi:end="0.029108009"
         sodipodi:start="0"
         d="m 495,312.36218 a 5,5 0 0 1 -0.002,0.14552 L 490,312.36218 Z"
         sodipodi:ry="5"
         sodipodi:rx="5"
         sodipodi:cy="312.36218"
         sodipodi:cx="490"
         id="path6928"
         style="opacity:0.97000002;fill:#1c0f0f;fill-opacity:1"
         sodipodi:type="arc" />
      <g
         id="g6940">
        <g
           id="g6914" />
      </g>
      <path
         style="fill:none;stroke:#000000;stroke-width:1.32283461;stroke-linecap:butt;stroke-linejoin:miter;stroke-miterlimit:4;stroke-dasharray:none;stroke-opacity:1;marker-start:url(#Arrow2Lstart)"
         d="m 676.51403,486.34356 c 0.27061,-0.61955 0.54069,-1.23788 0.77503,-1.77404 0.23435,-0.53616 0.43375,-0.99192 0.73539,-1.52413 0.30164,-0.53221 0.70783,-1.14507 1.01597,-1.59206 0.30813,-0.44699 0.52002,-0.73086 0.83105,-1.10776 0.31102,-0.37691 0.72476,-0.85118 1.20915,-1.35185 0.48439,-0.50067 1.04349,-1.03206 1.65227,-1.57554 0.60878,-0.54349 1.27087,-1.10236 1.9174,-1.65474 0.64652,-0.55238 1.28079,-1.10106 1.67515,-1.44773 0.39436,-0.34667 0.55042,-0.49266 0.7107,-0.6379 0.16029,-0.14525 0.32723,-0.29196 0.50494,-0.48476 0.1777,-0.19279 0.3699,-0.43557 0.60294,-0.7413 0.23304,-0.30572 0.51071,-0.67931 0.77659,-1.10079 0.26588,-0.42147 0.52297,-0.89531 0.69859,-1.29944 0.17562,-0.40413 0.27135,-0.74171 0.36415,-1.08033 0.0928,-0.33862 0.18358,-0.68158 0.23369,-1.06021 0.0501,-0.37863 0.0602,-0.7972 0.0501,-1.18118 -0.0101,-0.38397 -0.0403,-0.73662 -0.0695,-0.98817 -0.0292,-0.25155 -0.0575,-0.40375 -0.11936,-0.64486 -0.0619,-0.24111 -0.15831,-0.57512 -0.2948,-0.96859 -0.1365,-0.39348 -0.31421,-0.85009 -0.50776,-1.26111 -0.19354,-0.41102 -0.40376,-0.77841 -0.7848,-1.41013 -0.38104,-0.63171 -0.93412,-1.52979 -1.37737,-2.21286 -0.44325,-0.68308 -0.7774,-1.15231 -1.08296,-1.58934 -0.30557,-0.43703 -0.58286,-0.84232 -0.77121,-1.16935 -0.18835,-0.32702 -0.28791,-0.5759 -0.5717,-1.12574 -0.2838,-0.54985 -0.75386,-1.4045 -1.09497,-2.11521 -0.34112,-0.71072 -0.55442,-1.27954 -0.67516,-1.89776 -0.12073,-0.61822 -0.14919,-1.28695 -0.14202,-1.78785 0.007,-0.50091 0.0499,-0.83543 0.12447,-1.15126 0.0746,-0.31582 0.18156,-0.61532 0.33761,-0.95215 0.15606,-0.33683 0.363,-0.71504 0.57957,-1.0273 0.21656,-0.31225 0.44471,-0.56179 0.65048,-0.77106 0.20577,-0.20926 0.39134,-0.38056 0.6923,-0.57168 0.30096,-0.19112 0.72265,-0.40554 1.14493,-0.60068 0.42228,-0.19515 0.84994,-0.37334 1.48836,-0.55064 0.63843,-0.1773 1.49373,-0.35549 2.58377,-0.52235 1.09004,-0.16686 2.42091,-0.32343 3.37663,-0.45847 0.95572,-0.13504 1.539,-0.24885 2.0042,-0.35542 0.46521,-0.10657 0.81416,-0.20627 1.19016,-0.35531 0.376,-0.14904 0.7825,-0.34872 1.11969,-0.52978 0.33718,-0.18105 0.60807,-0.34501 0.82794,-0.5118 0.21986,-0.1668 0.39118,-0.33812 0.56828,-0.52942 0.1771,-0.19131 0.36297,-0.40578 0.52588,-0.68218 0.1629,-0.27641 0.30576,-0.61926 0.42279,-0.94564 0.11704,-0.32638 0.20976,-0.6402 0.25578,-0.94515 0.046,-0.30495 0.046,-0.6046 0.0354,-0.90965 -0.0107,-0.30505 -0.0321,-0.61883 -0.11367,-0.99471 -0.0816,-0.37587 -0.22416,-0.81783 -0.3875,-1.24035 -0.16335,-0.42252 -0.3484,-0.82821 -0.54728,-1.25083 -0.19889,-0.42263 -0.41234,-0.86377 -1.29288,-2.19523 -0.88054,-1.33145 -2.43141,-3.55816 -3.35835,-4.96813 -0.92694,-1.40997 -1.23143,-2.00524 -1.42383,-2.45116 -0.1924,-0.44592 -0.27286,-0.74262 -0.35318,-1.04631 -0.0803,-0.3037 -0.16091,-0.61602 -0.20856,-0.95246 -0.0476,-0.33644 -0.0627,-0.6991 -0.0552,-1.09059 0.008,-0.3915 0.0378,-0.81476 0.10066,-1.18883 0.0629,-0.37407 0.15857,-0.70155 0.34422,-1.07517 0.18565,-0.37363 0.46307,-0.79732 0.78182,-1.18623 0.31876,-0.38891 0.6816,-0.74671 0.97035,-0.99517 0.28875,-0.24845 0.50545,-0.38956 1.31334,-0.67967 0.80788,-0.29011 2.22261,-0.73474 3.37806,-0.9959 1.15545,-0.26116 2.06084,-0.34164 3.13562,-0.50238 1.07477,-0.16073 2.32262,-0.40225 3.37763,-0.73393 1.055,-0.33168 1.92021,-0.75422 2.78342,-1.17579"
         id="path1722"
         inkscape:connector-curvature="0"
         inkscape:path-effect="#path-effect1724"
         inkscape:original-d="m 676.51403,486.34356 c 0.27108,-0.61934 0.54116,-1.23767 0.81024,-1.85501 0.19961,-0.45498 0.39901,-0.91074 0.59701,-1.36461 0.40504,-0.61061 0.81124,-1.22346 1.21535,-1.83369 0.21209,-0.28379 0.42398,-0.56765 0.63446,-0.84998 0.41148,-0.47154 0.82521,-0.94582 1.23631,-1.41723 0.55759,-0.53001 1.11669,-1.06141 1.67354,-1.59062 0.66065,-0.55782 1.32274,-1.11669 1.98261,-1.67353 0.6332,-0.5479 1.26746,-1.09659 1.89969,-1.64339 0.15653,-0.14649 0.31259,-0.29248 0.46738,-0.43723 0.16575,-0.14577 0.3327,-0.29248 0.49754,-0.43723 0.19075,-0.24068 0.38295,-0.48346 0.57292,-0.72369 0.27615,-0.3712 0.55382,-0.74479 0.82923,-1.11569 0.25654,-0.47198 0.51362,-0.94582 0.76893,-1.41723 0.0962,-0.33686 0.19197,-0.67443 0.28646,-1.01015 0.0911,-0.34154 0.18192,-0.68449 0.27138,-1.02523 0.011,-0.41668 0.0211,-0.83525 0.0302,-1.25138 -0.0291,-0.35193 -0.0593,-0.70459 -0.0905,-1.05539 -0.0271,-0.15242 -0.0554,-0.30462 -0.0847,-0.45544 -0.0944,-0.33154 -0.19089,-0.66553 -0.28784,-0.9968 -0.17602,-0.45581 -0.35374,-0.91242 -0.53211,-1.36714 -0.20874,-0.36753 -0.41896,-0.73492 -0.62994,-1.10088 -0.55111,-0.89751 -1.10419,-1.79559 -1.65778,-2.69189 -0.33294,-0.46994 -0.66709,-0.93917 -1.00214,-1.40725 -0.27607,-0.40596 -0.55337,-0.81124 -0.83155,-1.21536 -0.0985,-0.24962 -0.19801,-0.49851 -0.29851,-0.74626 -0.46711,-0.85211 -0.93717,-1.70676 -1.40725,-2.55864 -0.21213,-0.56935 -0.42544,-1.13817 -0.63966,-1.70576 -0.0274,-0.66844 -0.0559,-1.33717 -0.0853,-2.00426 0.0436,-0.33457 0.0863,-0.66909 0.12794,-1.00213 0.10725,-0.29852 0.21422,-0.59802 0.31983,-0.89553 0.20628,-0.37616 0.41322,-0.75437 0.61833,-1.13006 0.22772,-0.24897 0.45587,-0.49851 0.68231,-0.74627 0.18501,-0.17086 0.37058,-0.34215 0.55437,-0.51172 0.41797,-0.21303 0.83966,-0.42744 1.25799,-0.63966 0.42622,-0.17818 0.85388,-0.35637 1.27932,-0.53305 0.85146,-0.17818 1.70676,-0.35637 2.55864,-0.53305 1.32826,-0.15715 2.65913,-0.31372 3.9872,-0.46908 0.58332,-0.11463 1.1666,-0.22844 1.7484,-0.34116 0.34857,-0.1003 0.69752,-0.2 1.04478,-0.2985 0.40473,-0.19933 0.81123,-0.39901 1.21535,-0.59702 0.27028,-0.16398 0.54116,-0.32794 0.81024,-0.4904 0.17083,-0.17084 0.34215,-0.34216 0.51172,-0.51173 0.18471,-0.21297 0.37058,-0.42744 0.55437,-0.63966 0.14244,-0.34045 0.2853,-0.6833 0.42644,-1.02345 0.0931,-0.31262 0.18579,-0.62645 0.27719,-0.93817 10e-4,-0.29837 10e-4,-0.59802 0,-0.89552 -0.0202,-0.31268 -0.0417,-0.62645 -0.064,-0.93817 -0.14072,-0.44035 -0.28329,-0.88231 -0.42644,-1.32196 -0.18353,-0.40555 -0.36858,-0.81124 -0.55437,-1.21535 -0.21198,-0.44117 -0.42544,-0.88231 -0.63966,-1.32196 -1.54692,-2.22348 -3.09779,-4.45019 -4.64818,-6.67378 -0.30343,-0.59616 -0.60792,-1.19143 -0.91338,-1.78565 -0.0794,-0.29732 -0.15982,-0.59403 -0.24123,-0.88954 -0.0792,-0.31187 -0.15982,-0.62418 -0.24123,-0.93477 -0.014,-0.36203 -0.0292,-0.72469 -0.0452,-1.08553 0.0311,-0.42204 0.0613,-0.84531 0.0905,-1.26646 0.0963,-0.32684 0.19198,-0.65434 0.28646,-0.98 0.2764,-0.42162 0.55382,-0.84531 0.82923,-1.26646 0.36185,-0.35684 0.72469,-0.71464 1.08554,-1.07046 0.2165,-0.14133 0.4332,-0.28244 0.64831,-0.42215 1.40062,-0.44089 2.81535,-0.88552 4.22153,-1.32677 0.90484,-0.0813 1.81023,-0.16182 2.71384,-0.24123 1.24587,-0.24194 2.49372,-0.48346 3.73907,-0.72369 0.86461,-0.42277 1.72982,-0.84531 2.59323,-1.26646"
         transform="translate(-160.56044,-35.600359)" />
    </g>
    <path
       style="fill:none;stroke:#000000;stroke-width:0.25;stroke-linecap:butt;stroke-linejoin:miter;stroke-miterlimit:4;stroke-dasharray:none;stroke-opacity:1"
       d="m 114.03542,95.916667 h -2.38125"
       id="path2160"
       inkscape:connector-curvature="0" />
    <path
       style="fill:none;stroke:#000000;stroke-width:0.25;stroke-linecap:butt;stroke-linejoin:miter;stroke-miterlimit:4;stroke-dasharray:none;stroke-opacity:1"
       d="M 112.18333,97.239583 H 111.125"
       id="path2164"
       inkscape:connector-curvature="0" />
    <path
       style="fill:none;stroke:#000000;stroke-width:0.25;stroke-linecap:butt;stroke-linejoin:miter;stroke-miterlimit:4;stroke-dasharray:none;stroke-opacity:1"
       d="M 112.18333,98.5625 H 111.125"
       id="path2166"
       inkscape:connector-curvature="0" />
    <path
       style="fill:none;stroke:#000000;stroke-width:0.26832795;stroke-linecap:butt;stroke-linejoin:miter;stroke-miterlimit:4;stroke-dasharray:none;stroke-opacity:1"
       d="m 113.77084,100.15 h -2.38126 v 0 0"
       id="path2168"
       inkscape:connector-curvature="0" />
  </g>
</svg>
